# xmcd CD database file
#
# Track frame offsets:
#	150
#	8034
#	25287
#	46150
#	66817
#	84640
#	87271
#	107350
#	125377
#	144423
#	165767
#	184807
#	204446
#	224061
#	243826
#	247090
#	264538
#	287515
#	305715
#	333361
#	333686
#	334002
#
# Disc length: 4729 seconds
#
# Revision: 4
# Processed by: cddbd v1.5.2PL0 Copyright (c) Steve Scherf et al.
# Submitted via: CDex 1.51
#
DISCID=39127716
DTITLE=Brown Eyed Soul - The Wind, The Sea, The Rain
DYEAR=2007
DGENRE=Blues
TTITLE0=Intro£ºThe Wind
TTITLE1=¹Ù¶÷ÀÎ°¡¿ä
TTITLE2=My Story
TTITLE3=²Þ
TTITLE4=¿À·¡µµ·Ï °í¸¿µµ·Ï
TTITLE5=Interlude£ºThe Rain
TTITLE6=Anything£ºThrough The Rain
TTITLE7=Ãß¾ï »ç¶û¸¸Å­ ~feat. °­ÇöÁ¤ of Bubble Sisters
TTITLE8=Sweet Thing ~feat. Dynamic Duo, Epic High
TTITLE9=Because Of You
TTITLE10=Life and Love Are The Same ~feat. Á¤ÀÎ
TTITLE11=Round and Round
TTITLE12=Promise You
TTITLE13=Nothing Better
TTITLE14=Interlude£ºThe Sea
TTITLE15=±×´ë¿Í µÑÀÌ
TTITLE16=±'Ù·Á¿ä
TTITLE17=±×·±»ç¶÷ÀÌ±â¸¦
TTITLE18=ÆøÇ³¼ÓÀÇ ÁÖ£ºThe Lord In The Storm ~feat. Heritage
TTITLE19=Untitled
TTITLE20=Untitled
TTITLE21=hidden track
EXTD=brownd eyed soul 2nd YEAR: 2007
EXTT0=
EXTT1=
EXTT2=
EXTT3=
EXTT4=
EXTT5=
EXTT6=
EXTT7=
EXTT8=
EXTT9=
EXTT10=
EXTT11=
EXTT12=
EXTT13=
EXTT14=
EXTT15=
EXTT16=
EXTT17=
EXTT18=
EXTT19=
EXTT20=
EXTT21=
PLAYORDER=
